<?xml version="1.0" encoding="utf-8"?>
<!-- Generator: Adobe Illustrator 27.3.1, SVG Export Plug-In . SVG Version: 6.00 Build 0)  -->
<svg version="1.1" id="Layer_1" xmlns="http://www.w3.org/2000/svg" xmlns:xlink="http://www.w3.org/1999/xlink" x="0px" y="0px"
	 viewBox="0 0 3200 2200" style="enable-background:new 0 0 3200 2200;" xml:space="preserve">
<style type="text/css">
	.st0{fill:#FFFFFF;}
</style>
<g>
	<path class="st0" d="M1325.8,1061c-12.1,0-24.9,7.1-30.5,16v47c5.7,8.6,18.5,16,30.5,16c20.4,0,33.5-16.5,33.5-39.6
		C1359.3,1077.5,1346.2,1061,1325.8,1061z"/>
	<path class="st0" d="M1905,1059.3c-22.2,0-32.3,17-33.5,31.5h67C1938.1,1076.8,1928.4,1059.3,1905,1059.3z"/>
	<path class="st0" d="M1463.2,1061c-12.1,0-24.9,7.1-30.5,16v47c5.7,8.6,18.5,16,30.5,16c20.4,0,33.5-16.5,33.5-39.6
		C1496.6,1077.5,1483.6,1061,1463.2,1061z"/>
	<path class="st0" d="M1186.7,1102.6c-14.5,0-25.4,8.4-25.4,21.4c0,12.8,10.8,21.2,25.4,21.2c11.3,0,22.4-4.2,28.3-12.3v-18
		C1209.1,1106.8,1198,1102.6,1186.7,1102.6z"/>
	<path class="st0" d="M0,0v2200h3200V0H0z M1090.7,1217.3c-6.4,1.1-13.1-2.1-16.3-7.9c-2.9-5.4-5.5-10.8-8.3-16.2
		c-12.6-24.8-25.3-49.5-37.9-74.3c-8.6-16.9-17.2-33.7-25.8-50.6c-7-13.6-13.9-27.2-20.9-40.9c-0.1-0.2-0.2-0.3-0.4-0.7
		c-24.4,46.8-48.7,93.5-73.2,140.4c2.8-1.3,5.2-2.5,7.7-3.7c19.4-9.2,38.8-18.5,58.2-27.7c9.7-4.6,20.5,0.7,22.7,11.2
		c1.4,6.8-2.2,14-8.7,17.1c-11.6,5.6-23.3,11.1-34.9,16.6c-24.5,11.7-49,23.4-73.5,35c-10.3,4.9-21.5-1.2-22.9-12.4
		c0-0.2-0.1-0.4-0.2-0.5c0-0.7,0-1.4,0-2.2c0.7-2.2,1.1-4.6,2.2-6.6c6.2-12.1,12.5-24,18.7-36c12.3-23.6,24.5-47.1,36.8-70.7
		c12.8-24.6,25.7-49.2,38.5-73.8c4.9-9.5,9.9-19,14.8-28.5c2.1-4,5.3-6.6,9.6-7.9c0.8-0.2,1.6-0.4,2.4-0.6c1.4,0,2.7,0,4.1,0
		c0.7,0.2,1.4,0.4,2.1,0.6c4.4,1.3,7.8,4,9.9,8.2c7.6,14.9,15.2,29.7,22.8,44.6c13.5,26.4,26.9,52.7,40.4,79.1
		c8.6,16.8,17.2,33.7,25.7,50.5c6,11.7,11.9,23.3,17.9,35C1107.2,1204.2,1101.5,1215.4,1090.7,1217.3z M1240.9,1160H1215v-12.8
		c-8.9,10.1-22.6,15.8-38.4,15.8c-19.4,0-41.4-13.1-41.4-39.4c0-27.3,21.9-38.7,41.4-38.7c16,0,29.8,5.2,38.4,15.3v-17.7
		c0-13.8-11.3-22.2-27.8-22.2c-13.3,0-24.9,4.9-35.2,15l-10.6-18c13.8-13.1,31-19.2,50-19.2c26.3,0,49.5,11.1,49.5,43.1V1160z
		 M1333.4,1162.9c-15.1,0.1-29.3-7.2-38.2-19.4v63.1h-25.9V1041h25.9v16.3c9-12.1,23.1-19.2,38.2-19.2c30.8,0,52.7,23.2,52.7,62.3
		C1386.1,1139.5,1364.2,1162.9,1333.4,1162.9z M1470.8,1162.9c-15.1,0.1-29.3-7.2-38.2-19.5v63.1h-25.9V1041h25.9v16.3
		c9-12.1,23.1-19.2,38.2-19.2c30.8,0,52.7,23.2,52.7,62.3C1523.5,1139.5,1501.6,1162.9,1470.8,1162.9z M1570,1160h-25.9v-119h25.9
		V1160z M1557.1,1029.8c-7.2,0-13-5.8-13-12.9s5.8-12.9,13-12.9s12.9,5.8,12.9,12.9S1564.2,1029.8,1557.1,1029.8z M1704.7,1160
		h-25.9v-74.4c0-18.5-9.4-24.6-23.9-24.6c-12.1,0.3-23.4,6.2-30.5,16v83h-25.9v-119h25.9v16.3c10.6-12.1,25.8-19.1,41.9-19.2
		c25.6,0,38.4,13.8,38.4,38.2V1160z M1792.3,1160h-27.8l-48.5-119h27.6l34.7,89.1l34.7-89.1h27.8L1792.3,1160z M1909.7,1141.8
		c11.6,0,25.4-4.7,33.7-13.1l11.8,17c-11.8,11.3-29.3,17.2-48.3,17.2c-35.7,0-62.3-24.9-62.3-62.6c0-34.5,25.1-62.3,60.3-62.3
		c35.7,0,58.6,27.3,58.6,64.8v6.2h-91.7C1873.8,1127,1887.3,1141.8,1909.7,1141.8z M2090.4,1160h-25.9v-74.4
		c0-18.5-9.4-24.6-23.9-24.6c-12.1,0.3-23.4,6.2-30.5,16v83h-25.9v-119h25.9v16.3c10.6-12.1,25.8-19.1,41.9-19.2
		c25.6,0,38.4,13.8,38.4,38.2V1160z M2154.7,1162.9c-19.9,0-30.5-10.8-30.5-30.5v-68.7h-19.7V1041h19.6v-29h25.9v29h24.2v22.6H2150
		v62.3c0,8.1,3.9,14,11.3,14c4.2,0.1,8.4-1.4,11.6-4.2l6.2,19.5C2174.4,1159.7,2166.7,1162.9,2154.7,1162.9z M2218.4,1160h-25.9
		v-119h25.9V1160z M2205.4,1029.8c-7.2,0-12.9-5.8-12.9-12.9s5.8-12.9,12.9-12.9s12.9,5.8,12.9,12.9S2212.6,1029.8,2205.4,1029.8z
		 M2306.1,1160h-27.8l-48.5-118.9h27.6l34.7,89.1l34.7-89.1h27.8L2306.1,1160z"/>
</g>
</svg>
